<?xml version="1.0" encoding="utf-8"?>
<!-- Generator: Adobe Illustrator 18.1.0, SVG Export Plug-In . SVG Version: 6.00 Build 0)  -->
<svg version="1.1" id="Layer_1" xmlns="http://www.w3.org/2000/svg" xmlns:xlink="http://www.w3.org/1999/xlink" x="0px" y="0px"
	 viewBox="0 0 60 60" enable-background="new 0 0 60 60" xml:space="preserve">
<linearGradient id="SVGID_1_" gradientUnits="userSpaceOnUse" x1="28.4" y1="54.625" x2="28.4" y2="11.9283" gradientTransform="matrix(1.0526 0 0 -1.0526 0 64.7368)">
	<stop  offset="0" style="stop-color:#F2F2F2"/>
	<stop  offset="0.9951" style="stop-color:#E6E6E6"/>
</linearGradient>
<path fill="url(#SVGID_1_)" stroke="#5B5B5B" stroke-width="0.25" stroke-miterlimit="10" d="M49.4,52.2H10.4c-1.7,0-3-1.3-3-3V10.3
	c0-1.7,1.3-3,3-3h38.9c1.7,0,3,1.3,3,3v38.9C52.4,50.8,51.1,52.2,49.4,52.2z"/>
<path fill="#0074A2" d="M46.5,30.4v-1.6H31.6v-3.4H21.1v3.4h-7.4v1.6h7.5v3.2h10.5v-3.2H46.5z M30,32h-7.4v-4.9H30V32z M37.3,43.5
	h9.3v-1.6h-9.3v-3.4H26.7v3.4H13.7v1.6h13.2v3.2h10.5v-3.2H37.3z M28.4,45.1v-4.9h7.4v4.9H28.4z M46.5,17.8v-1.6h-5.4v-3.4H30.6v3.4
	H13.7v1.6h17.1v3.2h10.5v-3.2H46.5z M39.6,19.4h-7.4v-4.9h7.4V19.4z"/>
</svg>
