<?xml version="1.0" encoding="utf-8"?>
<!-- Generator: Adobe Illustrator 18.1.0, SVG Export Plug-In . SVG Version: 6.00 Build 0)  -->
<svg version="1.1" id="Layer_1" xmlns="http://www.w3.org/2000/svg" xmlns:xlink="http://www.w3.org/1999/xlink" x="0px" y="0px"
	 viewBox="0 0 60 60" enable-background="new 0 0 60 60" xml:space="preserve">
<g>
	<linearGradient id="SVGID_1_" gradientUnits="userSpaceOnUse" x1="30.4249" y1="8.4104" x2="30.4249" y2="53.4104">
		<stop  offset="0" style="stop-color:#F2F2F2"/>
		<stop  offset="0.9951" style="stop-color:#E6E6E6"/>
	</linearGradient>
	<path fill="url(#SVGID_1_)" stroke="#5B5B5B" stroke-width="0.25" stroke-miterlimit="10" d="M49.9,53.4h-39c-1.7,0-3-1.3-3-3v-39
		c0-1.7,1.3-3,3-3h39c1.6,0,3,1.3,3,3v39C52.9,52.1,51.6,53.4,49.9,53.4z"/>
	<g>
		<g>
			<rect x="17.3" y="13.2" fill="none" stroke="#0074A2" stroke-width="1.5" stroke-miterlimit="10" width="26.3" height="35.4"/>
			<rect x="21.4" y="17.1" fill="none" stroke="#0074A2" stroke-width="1.5" stroke-miterlimit="10" width="18.2" height="25.3"/>
			<polyline fill="none" stroke="#0074A2" stroke-miterlimit="10" points="33,45.5 28.4,45.5 28,45.5 			"/>
		</g>
		<linearGradient id="SVGID_2_" gradientUnits="userSpaceOnUse" x1="43.5" y1="21.5" x2="43.5" y2="31.5">
			<stop  offset="0" style="stop-color:#F2F2F2"/>
			<stop  offset="0.9951" style="stop-color:#E6E6E6"/>
		</linearGradient>
		<polygon display="none" fill="url(#SVGID_2_)" stroke="#0074A2" stroke-miterlimit="10" points="48.5,24.5 45.5,24.5 45.5,21.5 
			41.5,21.5 41.5,24.5 38.5,24.5 38.5,28.5 41.5,28.5 41.5,31.5 45.5,31.5 45.5,28.5 48.5,28.5 		"/>
	</g>
</g>
</svg>
