<?xml version="1.0" encoding="utf-8"?>
<!-- Generator: Adobe Illustrator 18.1.0, SVG Export Plug-In . SVG Version: 6.00 Build 0)  -->
<svg version="1.1" id="Layer_1" xmlns="http://www.w3.org/2000/svg" xmlns:xlink="http://www.w3.org/1999/xlink" x="0px" y="0px"
	 viewBox="0 0 60 60" enable-background="new 0 0 60 60" xml:space="preserve">
<path opacity="0.6" fill="#FFFFFF" d="M48.3,25.8c-0.5-5.6-3.6-10.1-8.1-12.2c-2.3-1.1-4.7-1.6-7.1-1.6c-4.9,0-9.7,2.2-14.7,6.8
	l-2-2.5c-0.5-0.7-1.1-0.9-1.5-0.9c-0.3,0-1.2,0.1-1.5,1.6l-2.7,15.6c-0.1,0.7,0,1.3,0.4,1.8c0.5,0.6,1.3,0.8,2.2,0.5l15.5-4.8
	c1.1-0.3,1.4-1,1.4-1.3c0-0.4-0.1-1-1.1-1.5l-3.5-2.2c1.4-1.3,5-3.9,9.3-3.5c2.9,0.3,5.6,2.6,6.9,5.9c2,5,0.5,10.9-4.1,16.4
	l-3.7,4.4l4.7-3.3C45.3,40.3,49,33.1,48.3,25.8z M42,39.9c2.2-4.4,2.6-9,1-12.9c-1.5-3.7-4.7-6.4-8.1-6.8c-0.4,0-0.8-0.1-1.2-0.1
	c-5.7,0-9.9,4.5-10,4.6l-0.6,0.7l5.2,3.2c0,0,0.1,0,0.1,0c0,0-0.1,0-0.1,0l-15.5,4.8c-0.2,0.1-0.4,0.1-0.6,0c-0.1-0.1-0.1-0.2,0-0.5
	l2.7-15.6c0-0.1,0.1-0.2,0.1-0.3c0.1,0,0.1,0.1,0.2,0.2l3.1,3.8l0.6-0.6c4.9-4.7,9.6-7,14.3-7c2.1,0,4.3,0.5,6.5,1.5
	c4.1,1.8,6.8,5.9,7.2,10.9C47.3,30.9,45.5,35.8,42,39.9z"/>
</svg>
