<?xml version="1.0" encoding="utf-8"?>
<!-- Generator: Adobe Illustrator 18.1.1, SVG Export Plug-In . SVG Version: 6.00 Build 0)  -->
<!DOCTYPE svg PUBLIC "-//W3C//DTD SVG 1.1//EN" "http://www.w3.org/Graphics/SVG/1.1/DTD/svg11.dtd">
<svg version="1.1" id="Layer_1" xmlns="http://www.w3.org/2000/svg" xmlns:xlink="http://www.w3.org/1999/xlink" x="0px" y="0px"
	 viewBox="0 0 1440 1500" enable-background="new 0 0 1440 1500" xml:space="preserve">
<rect x="20.6" y="50.4" display="none" fill="#FF0000" width="1398.8" height="1399.2"/>
<g display="none">
	
		<rect x="-400.7" y="28.9" display="inline" fill="#FFFFFF" stroke="#000000" stroke-width="3.4621" stroke-miterlimit="10" width="2255.9" height="1471.8"/>
</g>
<g>
	<path fill="#FFFFFF" d="M458.5,798.2c-4.4-10.2-10-19.8-16.6-28.7c-6.4-8.5-14-16.6-22.5-24c-15.7-13.5-34.8-25.1-58.6-35.4
		c-20.4-8.8-44.6-16.9-73.9-24.5l-0.1,0c-23.7-6.1-50.2-13.2-67.9-20.2c-0.8-0.4-1.6-0.8-2.5-1.1c-0.1,0-0.5-0.2-1.3-0.5
		c-4.2-1.8-7.7-3.5-10.6-5.2c-4.9-2.9-6.7-5-7.4-6.2c-0.9-1.6-1.3-4.4-1.3-8.3v-1.5c0-3.9,1.6-6.9,5.5-9.7c6.9-5,19-7.9,33.4-7.9
		c14.5,0,29.2,2.5,44.9,7.7c15.6,5.1,31.9,12.7,49.8,23.3l0.1,0.1c13.9,8.1,27.4,11.9,42.7,11.9c10.8,0,21.3-2,31.2-6.1
		c9.7-4,18.3-9.6,25.8-16.9c7.5-7.3,13.3-15.9,17.4-25.6c4.2-9.9,6.4-20.5,6.4-31.5c0-15.3-4.1-30-12-42.6
		c-6.6-10.7-15.7-19.6-26.3-25.9c-52.3-33.1-112.4-49.9-178.6-49.9c-29,0-56.5,4.2-81.6,12.6c-4.1,1.4-8.3,2.9-12.3,4.5
		c-2.2,0.5-4.2,1.4-6,2.2c-1.1,0.5-2.5,1.2-3.9,2c-16.3,7.5-31.2,16.9-44.2,28c-19.2,16.3-34.2,36.1-44.5,58.7
		c-10.5,23-15.8,48.4-15.8,75.5v1.5c0,14.6,1.1,28.2,3.4,40.4c2.4,12.7,6.1,24.6,10.9,35.3c4.9,10.7,11,20.8,18.3,29.8
		c6.9,8.6,15.1,16.7,24.3,23.9c33.1,25.9,77.9,41,135,55.6c39.9,10.2,64.1,18.7,76.2,26.7c4.3,2.8,6,4.7,6.5,5.8
		c0.3,0.6,1.2,2.1,1.2,6.6v1.5c0,5.5-2.3,9.3-7.6,12.8c-8.3,5.4-22.8,8.5-39.8,8.5c-21.2,0-41.1-3.5-60.9-10.8
		c-18.6-6.8-36.7-16.8-55.2-30.4l-0.6-0.4c-6.4-4.5-13-7.9-19.9-10.4c-8.9-3.3-18.5-4.9-28.4-4.9c-10.8,0-21.3,2-31.2,6.1
		c-9.7,4-18.3,9.6-25.8,16.9c-7.5,7.3-13.3,15.9-17.4,25.6c-4.2,9.9-6.4,20.5-6.4,31.5c0,25.9,12.7,50.9,33,65.3
		c30.7,22,64.7,39,101.1,50.4c35.4,11.2,72.2,16.8,109.4,16.8c62.4,0,115.7-16.5,154.2-47.9c20.3-16.5,36.2-36.8,46.9-60.3
		c10.9-23.9,16.6-50.8,16.6-79.9v-1.5c0-12.8-1.2-25.1-3.3-36.5C466.3,819.5,462.9,808.5,458.5,798.2z M336.7,880.2v-1.5
		c0-17.7-6.7-29.6-22.2-39.9c-15.7-10.3-41.5-19.7-86.3-31.1c-53.1-13.5-94.2-27.2-122.9-49.6c-30.4-23.8-44.6-56.7-44.6-103.5v-1.5
		c0-16.3,2.3-32,6.9-46.5c3-9.2,6.8-18,11.6-26.3c2.1,10.7,6.5,21.4,13.2,32.3c8.2,13.2,19.3,25.8,33.1,37.5
		c10.8,9.1,23.2,17.7,37,25.5c18.5,10.5,34.4,16.8,40.5,19c15.7,6.6,37.6,13.2,75.6,22.9c27.7,7.2,50.3,14.7,69.2,22.8
		c20.7,8.9,37.1,18.8,50.1,30.1c13.7,11.9,23.8,25.2,30.5,40.8c7,16.3,10.5,34.7,10.5,56.4v1.5c0,24.3-4.6,46.6-13.6,66.2
		c-8.6,18.8-21.3,35.1-37.7,48.4c-32.6,26.5-78.8,40.5-133.6,40.5c-33.8,0-67.3-5.1-99.5-15.3c-33.1-10.4-64-25.8-91.8-45.8l0,0
		c-11.7-8.2-19.2-23.3-19.2-38.5c0-26.4,21-47.1,47.9-47.1c10.9,0,20.3,3,29.4,9.4c43.5,32,87.9,47.6,135.6,47.6
		c23.9,0,44-4.8,57.9-13.9C328.9,910.9,336.7,897,336.7,880.2z M163.2,637.3c-23.7-16-36.3-31.5-42.9-42
		c-8.4-13.6-11.3-26.2-8.7-37.4c3.9-16.3,18.7-27.4,27.2-32.6c3.3-2,6-3.6,8.4-4.9c26.2-11.9,56.2-17.9,89.1-17.9
		c60,0,114.3,15.2,161.3,45l0.1,0.1c6.1,3.6,11.6,9,15.4,15.2c4.7,7.5,7,16,7,25.3c0,26.4-21,47.1-47.9,47.1
		c-9.3,0-17.4-2.3-26.1-7.4c-20-11.8-38.3-20.3-56.3-26.2c-19.1-6.3-37.2-9.3-55.2-9.3c-21.8,0-40.1,4.9-52.8,14.2
		C171.2,614.3,164.7,625.1,163.2,637.3z"/>
	<path fill="#FFFFFF" d="M1413.1,764.6c-10.5-24.4-26-45.2-46.2-61.9c-18.7-15.4-41.3-27.1-67.2-34.7c-23.8-7-50.5-10.6-79.1-10.6
		c-13.5,0-26.1,0.8-38.2,2.4l1.9-27.9h148.7c10.3,0,20.4-2,30-6c9.2-3.9,17.5-9.4,24.7-16.4c7.2-7,12.9-15.3,16.9-24.4
		c4.2-9.6,6.3-19.8,6.3-30.3c0-10.4-2.1-20.6-6.3-30.3c-4-9.2-9.6-17.5-16.7-24.6c-7.3-7.3-15.5-12.9-24.6-16.8
		c-9.8-4.2-20-6.4-30.3-6.4h-224.8c-20.3,0-39.5,7.9-54.1,22.1c-14.2,13.9-22.6,32.6-23.7,52.8l-10.3,175c-1,14.2,1.1,27.3,6.3,39
		c5.4,12.2,14.1,22.7,25.8,31l0.2,0.1c14.3,10.1,23.8,16,32.8,20.1c11.7,5.4,22.8,7.9,34.9,7.9c9.8,0,18.5-2.6,27.8-5.3
		c12.1-3.6,27.2-8,50.6-8c10.9,0,20.9,1.3,29.7,3.7c7.9,2.2,14.7,5.4,20,9.3c4.7,3.5,8.3,7.7,10.6,12.4c2.5,5,3.7,10.8,3.7,17.3v1.5
		c0,13.7-4.5,24.3-13.6,31.8c-4.6,3.8-10.4,6.8-17.2,8.9c-7.5,2.3-15.9,3.5-25.1,3.5c-15.2,0-28.9-2.1-42-6.6
		c-13.2-4.5-26.3-11.5-40.1-21.4c-14.5-10.9-29.2-15.7-47.4-15.7c-11,0-21.8,2.3-32,6.7c-9.6,4.2-18.3,10.2-25.8,17.8
		c-7.4,7.5-13.3,16.3-17.3,26c-4.3,10.1-6.4,20.8-6.4,31.7c0,13.9,3.4,26.9,9.9,38.8c5.9,10.6,14.1,19.7,24.4,27.1l0.1,0.1
		c24.7,17.6,50.1,30.5,77.6,39.3c30.7,9.8,63.8,14.6,101.1,14.6c31.2,0,60.6-4.8,87.3-14.1c26.9-9.5,50.6-23.4,70.4-41.5
		c20.3-18.5,35.8-40.7,46.5-66c10.9-25.9,16.3-54.4,16.3-84.8v-1.5C1429.2,818.7,1423.8,789.8,1413.1,764.6z M1295.2,855.8v-1.5
		c0-45.9-38-75.6-97-75.6c-28.1,0-46.4,5.4-59.8,9.3c-7.5,2.2-13.5,4-18.5,4c-13.8,0-24.7-4.9-48.6-21.9
		c-13.8-9.9-19.8-23.3-18.5-41.1l10.4-175.5c0.6-12,5.6-23.1,13.8-31.2c8.3-8.1,19.4-12.7,31.1-12.7h224.8c24.3,0,44.9,20.6,44.9,45
		c0,11.8-4.7,22.8-13.3,31.3c-8.5,8.4-19.8,13-31.6,13h-179.5l-6.7,101.8l7.1-1.8c18.4-4.6,37.3-8.7,66.8-8.7
		c25.5,0,49,3.1,69.9,9.2c21.6,6.4,40.3,16,55.6,28.6c16,13.2,28.4,29.8,36.8,49.4c9,20.9,13.5,45.5,13.5,73.1v1.5
		c0,51.7-17.9,95.5-52,126.6c-16.5,15.1-36.4,26.8-59.1,34.8c-23.2,8.1-48.9,12.3-76.4,12.3c-33.9,0-63.7-4.3-91.1-13
		c-24.2-7.8-46.6-19.1-68.5-34.7c-13.4-9.6-20.7-23.6-20.7-39.3c0-26.8,22.3-49.4,48.6-49.4c11.1,0,18.9,2.6,27.8,9.3l0.1,0.1
		c32.9,23.7,64.2,34.3,101.5,34.3c25.5,0,47.2-6.9,63.1-19.9C1286.4,899.2,1295.2,879.4,1295.2,855.8z"/>
	<path fill="#FFFFFF" d="M782,629.9c23.1,1.5,42.6,7.5,61.4,18.9c13.2,8.9,29.3,13.9,45.3,13.9c2.5,0,5-0.1,7.4-0.4
		c43.9-4.2,76.2-42.9,72.1-86.4c-1.1-11.7-4.4-22.6-9.9-32.4c-5.6-10.3-13.3-18.9-22.8-25.6l-0.1-0.1
		c-47.7-31.8-101.2-46.7-168.3-46.7c-36.3,0-72.3,8.1-106.9,24c-32.4,14.9-62,35.9-88,62.4c-53.5,54.5-83,127.8-83,206.1v1.5
		c0,78.4,29.6,151.5,83.3,206c25.5,25.8,56.1,47.1,88.4,61.6c34.2,15.3,69.9,23.1,105.8,23.1c4.1,0,7.8-0.1,12.3-0.2l-0.1-2.8v-2.5
		l0.2,5.3c30.7-1,58-5.1,83.6-12.7c25.8-7.7,49.3-18.7,71.8-33.7l0.1-0.1c18.8-13.3,30.8-34.4,33.1-58c2-21.1-4.4-41.6-17.9-57.9
		c-13.6-16.3-32.7-26.4-53.9-28.4c-2.5-0.3-4.9-0.4-7.3-0.4c-15.8,0-31.8,4.9-45.1,13.9c-18.8,11.4-38.4,17.4-61.8,18.9
		c-33.1-0.4-63.5-14-85.7-38.4c-22.4-24.6-34.7-58.4-34.7-95v-1.5C661.6,687.6,713.4,630.7,782,629.9z M860.9,906.3l0.5-0.3l0.7-0.5
		c7.9-5.3,17.3-8.3,26.7-8.3c1.4,0,2.8,0.1,4.2,0.2c12.5,1.2,23.7,7.1,31.7,16.7c7.9,9.5,11.7,21.6,10.5,33.8
		c-0.7,7-2.7,13.5-6,19.4c-3.3,5.8-7.6,10.8-13,14.6c-19.6,13-40.1,22.7-62.7,29.3c-22.8,6.8-47.5,10.5-75.3,11.4l-3.9,0.1
		c-2.5,0-4.9,0.1-7.4,0.1c-15.7,0-31.6-1.8-47.3-5.2c-15.3-3.4-30.4-8.4-45.1-15c-14.4-6.4-28.4-14.4-41.7-23.6
		c-13-9.1-25.4-19.5-36.7-31.1c-47.6-48.3-73.8-113.2-73.8-182.9v-1.5c0-69.7,26.1-134.7,73.6-183.1c11.4-11.6,23.7-22.2,36.6-31.4
		c13.3-9.5,27.3-17.6,41.6-24.2c30.2-13.9,61.6-20.9,93.1-20.9c30.8,0,57.7,3.3,82.3,10.1c24.2,6.7,46.2,16.8,67.4,30.8
		c5.3,3.8,9.5,8.6,12.7,14.4c3.3,5.9,5.3,12.5,5.9,19.7c2.4,25.4-16.6,48.1-42.5,50.5c-1.4,0.1-2.9,0.2-4.3,0.2
		c-9.5,0-19.1-2.9-27-8.3l-0.5-0.3l-0.7-0.4c-11.4-6.9-22.8-12.1-34.9-16c-13.2-4.2-26.8-6.7-41.7-7.7l-1-0.1h-1
		c-42.3,0.4-81.3,17.8-109.8,48.8c-28,30.5-43.4,71.8-43.4,116.4v1.5c0,22.7,3.8,44.4,11.3,64.4c7.4,19.9,18.2,37.6,32,52.7
		c28.4,31.2,67.4,48.7,109.8,49.1h1l1-0.1C812.5,928.1,837.7,920.4,860.9,906.3z"/>
</g>
<path display="none" opacity="0.2" fill="#FF0000" enable-background="new    " d="M22.5,800.4c-4.2-9.8-9.6-19.1-16-27.6
	c-6.2-8.2-13.5-16-21.7-23.1c-15.2-13.2-34-24.4-57.2-34.5c-20.2-8.7-44.1-16.7-73.2-24.2h0h0c-28.9-7.4-52.5-14-68.8-20.5
	c-0.6-0.4-1.3-0.6-1.9-0.9c0,0-0.6-0.2-1.5-0.5c-4.4-1.9-8.2-3.7-11.3-5.6c-4.8-2.8-8-5.5-9.5-8.2c-0.9-1.5-2.1-4.4-2.1-10.9v-1.5
	c0-5.6,2.6-10.3,7.9-14c7.9-5.7,20.9-8.9,36.7-8.9c15,0,30.3,2.6,46.6,8c16,5.3,32.6,13,50.9,23.7l0,0l0,0c13,7.6,25.8,11.2,40,11.2
	c10.1,0,20-1.9,29.2-5.7c9-3.7,17.1-9,24.1-15.8c7-6.8,12.4-14.9,16.3-23.8c3.9-9.3,5.9-19.1,5.9-29.3c0-14.3-3.9-28-11.2-39.8
	c-6.2-10-14.7-18.3-24.5-24.2c-51.5-32.6-110.6-49.1-175.8-49.1c-28.4,0-55.3,4.1-79.9,12.3c-4.3,1.4-8.4,2.9-12.4,4.6
	c-1.9,0.4-3.6,1.1-5.2,1.9c-1.1,0.5-2.4,1.2-3.9,2c-15.9,7.3-30.4,16.4-43.2,27.3c-18.7,15.9-33.3,35.1-43.3,56.9
	c-10.3,22.4-15.4,47-15.4,73.2v1.5c0,14,1.2,27.3,3.5,39.4c2.3,12.2,5.9,23.7,10.6,34.1c4.6,10.3,10.6,19.9,17.6,28.7
	c6.7,8.3,14.6,16,23.5,23c32.4,25.4,76.6,40.2,133.1,54.6c40.5,10.4,65.2,19.1,77.8,27.4c4.1,2.8,6.9,5.3,8.2,7.8
	c0.7,1.3,1.6,3.7,1.6,9.1v1.5c0,7.5-3.1,12.8-9.9,17.2c-9.3,6.1-24.4,9.4-42.7,9.4c-21.8,0-42.3-3.6-62.7-11.1
	c-19-7-37.6-17.2-56.5-31.2l-0.2-0.1l-0.2-0.1c-6.1-4.3-12.2-7.4-18.7-9.8c-8.4-3-17.3-4.6-26.6-4.6c-10.1,0-20,1.9-29.2,5.7
	c-9,3.7-17.1,9-24.1,15.8c-7,6.8-12.4,14.9-16.3,23.8c-3.9,9.3-5.9,19.1-5.9,29.3c0,24.2,11.8,47.5,30.7,60.9
	c30.2,21.7,63.7,38.4,99.6,49.7c34.9,11,71.2,16.5,107.8,16.5c61.1,0,113.3-16.1,150.9-46.6c19.7-16,34.9-35.6,45.3-58.3
	c10.6-23.2,15.9-49.3,15.9-77.7v-1.5c0-12.5-1-24.5-3.1-35.5C29.9,820.9,26.7,810.2,22.5,800.4z M-30.6,543
	c12.6,7.4,25.1,22.9,25.1,45.1c0,29.6-23.7,52.5-53.3,52.5c-11.1,0-20-3-28.8-8.1c-37.7-22.2-73.3-34.7-108.8-34.7
	c-43.6,0-66.7,20-66.7,45.1v1.5c0,0.9,0.1,1.8,0.1,2.7c-29.5-18.2-44.7-36.4-52.5-48.9c-9.2-14.9-12.3-28.8-9.3-41.4
	c4.3-18.2,20.4-30.3,29.6-36c3.9-2.4,6.7-4,8.8-5.1c26.3-12,57.3-18.4,91.5-18.4C-131.9,497.1-77.2,513.4-30.6,543z M12.9,869.1
	c0,102.8-78.3,160.5-190,160.5c-68,0-136.8-20.7-194.5-62.1c-12.6-8.9-21.4-25.1-21.4-42.9c0-29.6,23.7-52.5,53.3-52.5
	c14.8,0,25.2,5.2,32.5,10.4c39.2,28.8,82.1,46.6,132.4,46.6c46.6,0,74.7-18.5,74.7-48.8v-1.5c0-28.8-17.8-43.6-104.3-65.8
	C-308.6,786.3-376,757.5-376,654.7v-1.5c0-34.3,10.1-64.4,28.1-88.8c-0.4,14.7,4.1,29.9,13.8,45.4c7.9,12.7,18.7,24.9,32.1,36.2
	c10.5,8.9,22.7,17.3,36.2,24.9c18.3,10.3,33.8,16.5,39.8,18.7c17,7.1,41.1,14.1,74.9,22.7c105,27.4,164.1,65.1,164.1,155.3
	L12.9,869.1L12.9,869.1z"/>
<path display="none" opacity="0.2" fill="#FF0000" enable-background="new    " d="M1842.5,800.4c-4.2-9.8-9.6-19.1-16-27.6
	c-6.2-8.2-13.5-16-21.7-23.1c-15.2-13.2-34-24.4-57.2-34.5c-20.2-8.7-44.1-16.7-73.2-24.2h0h0c-28.9-7.4-52.5-14-68.8-20.5
	c-0.6-0.4-1.3-0.6-1.9-0.9c0,0-0.6-0.2-1.5-0.5c-4.4-1.9-8.2-3.7-11.3-5.6c-4.8-2.8-7.9-5.5-9.4-8.2c-0.9-1.5-2-4.4-2-10.9v-1.5
	c0-5.6,2.6-10.3,7.8-14c7.9-5.7,20.9-8.9,36.6-8.9c15,0,30.3,2.6,46.6,8c16,5.3,32.6,13,50.9,23.7l0,0l0,0c13,7.6,25.8,11.2,40,11.2
	c10.1,0,20-1.9,29.2-5.7c9-3.7,17.1-9,24.1-15.8c7-6.8,12.4-14.9,16.3-23.8c3.9-9.3,5.9-19.1,5.9-29.3c0-14.3-3.9-28-11.2-39.8
	c-6.2-10-14.7-18.3-24.5-24.2c-51.5-32.6-110.6-49.1-175.8-49.1c-28.4,0-55.3,4.1-79.9,12.3c-4.3,1.4-8.4,2.9-12.4,4.6
	c-1.9,0.4-3.6,1.1-5.2,1.9c-1.1,0.5-2.4,1.2-3.9,2c-15.9,7.3-30.4,16.4-43.2,27.3c-18.7,15.9-33.2,35.1-43.2,56.9
	c-10.3,22.4-15.4,47-15.4,73.2v1.5c0,14,1.1,27.3,3.4,39.4c2.3,12.2,5.9,23.7,10.6,34.1c4.6,10.3,10.5,19.9,17.5,28.7
	c6.7,8.3,14.6,16,23.5,23c32.4,25.4,76.6,40.2,133.1,54.6c40.5,10.4,65.2,19.1,77.8,27.4c4.1,2.8,6.9,5.3,8.3,7.8
	c0.7,1.3,1.7,3.7,1.7,9.1v1.5c0,7.5-3.1,12.8-10,17.2c-9.3,6.1-24.5,9.4-42.7,9.4c-21.8,0-42.4-3.6-62.7-11.1
	c-19-7-37.6-17.2-56.5-31.2l-0.2-0.1l-0.2-0.1c-6.1-4.3-12.2-7.4-18.7-9.8c-8.4-3-17.3-4.6-26.6-4.6c-10.1,0-20,1.9-29.2,5.7
	c-9,3.7-17.1,9-24.1,15.8c-7,6.8-12.4,14.9-16.3,23.8c-3.9,9.3-5.9,19.1-5.9,29.3c0,24.2,11.8,47.5,30.7,60.9
	c30.2,21.7,63.7,38.4,99.6,49.7c34.9,11,71.2,16.5,107.8,16.5c61.1,0,113.3-16.1,150.9-46.6c19.7-16,35-35.6,45.4-58.3
	c10.6-23.2,16-49.3,16-77.7v-1.5c0-12.5-1.1-24.5-3.1-35.5C1850,820.9,1846.8,810.2,1842.5,800.4z M1789.4,543
	c12.6,7.4,25.1,22.9,25.1,45.1c0,29.6-23.7,52.5-53.3,52.5c-11.1,0-20-3-28.8-8.1c-37.7-22.2-73.2-34.7-108.7-34.7
	c-43.6,0-66.6,20-66.6,45.1v1.5c0,0.9,0,1.8,0.1,2.7c-29.5-18.2-44.8-36.4-52.5-48.9c-9.2-14.9-12.3-28.8-9.3-41.4
	c4.3-18.2,20.4-30.3,29.6-36c3.9-2.4,6.7-4,8.7-5.1c26.3-12,57.3-18.4,91.5-18.4C1688.1,497.1,1742.9,513.4,1789.4,543z
	 M1833.1,869.1c0,102.8-78.4,160.5-190.1,160.5c-68,0-136.8-20.7-194.5-62.1c-12.6-8.9-21.4-25.1-21.4-42.9
	c0-29.6,23.7-52.5,53.3-52.5c14.8,0,25.1,5.2,32.5,10.4c39.2,28.8,82.2,46.6,132.5,46.6c46.6,0,74.8-18.5,74.8-48.8v-1.5
	c0-28.8-17.8-43.6-104.3-65.8c-104.3-26.6-171.6-55.5-171.6-158.3v-1.5c0-34.3,10-64.4,28-88.8c-0.4,14.7,4.1,29.9,13.7,45.4
	c7.9,12.7,18.7,24.9,32.1,36.2c10.5,8.9,22.7,17.3,36.2,24.9c18.3,10.3,33.8,16.5,39.8,18.7c17,7.1,41.2,14.1,74.9,22.7
	c105,27.4,164.2,65.1,164.2,155.3L1833.1,869.1L1833.1,869.1z"/>
<path display="none" opacity="0.2" fill="#FF0000" enable-background="new    " d="M764,1063.1c-9.8,4.2-19.1,9.6-27.6,16
	c-8.2,6.2-16,13.5-23.1,21.7c-13.2,15.2-24.4,34-34.5,57.2c-8.7,20.2-16.7,44.1-24.2,73.2v0v0c-7.4,28.9-14,52.5-20.5,68.8
	c-0.4,0.6-0.6,1.3-0.9,1.9c0,0-0.2,0.6-0.5,1.5c-1.9,4.4-3.7,8.2-5.6,11.3c-2.8,4.8-5.5,7.9-8.2,9.4c-1.5,0.9-4.4,2-10.9,2h-1.5
	c-5.6,0-10.3-2.6-14-7.8c-5.7-7.9-8.9-20.9-8.9-36.6c0-15,2.6-30.3,8-46.6c5.3-16,13-32.6,23.7-50.9l0,0l0,0
	c7.6-13,11.2-25.8,11.2-40c0-10.1-1.9-20-5.7-29.2c-3.7-9-9-17.1-15.8-24.1c-6.8-7-14.9-12.4-23.8-16.3c-9.3-3.9-19.1-5.9-29.3-5.9
	c-14.3,0-28,3.9-39.8,11.2c-10,6.2-18.3,14.7-24.2,24.5c-32.6,51.5-49.1,110.6-49.1,175.8c0,28.4,4.1,55.3,12.3,79.9
	c1.4,4.3,2.9,8.4,4.6,12.4c0.4,1.9,1.1,3.6,1.9,5.2c0.5,1.1,1.2,2.4,2,3.9c7.3,15.9,16.4,30.4,27.3,43.2
	c15.9,18.7,35.1,33.2,56.9,43.2c22.4,10.3,47,15.4,73.2,15.4h1.5c14,0,27.3-1.1,39.4-3.4c12.2-2.3,23.7-5.9,34.1-10.6
	c10.3-4.6,19.9-10.5,28.7-17.5c8.3-6.7,16-14.6,23-23.5c25.4-32.4,40.2-76.6,54.6-133.1c10.4-40.5,19.1-65.2,27.4-77.8
	c2.8-4.1,5.3-6.9,7.8-8.3c1.3-0.7,3.7-1.7,9.1-1.7h1.5c7.5,0,12.8,3.1,17.2,10c6.1,9.3,9.4,24.5,9.4,42.7c0,21.8-3.6,42.4-11.1,62.7
	c-7,19-17.2,37.6-31.2,56.5l-0.1,0.2l-0.1,0.2c-4.3,6.1-7.4,12.2-9.8,18.7c-3,8.4-4.6,17.3-4.6,26.6c0,10.1,1.9,20,5.7,29.2
	c3.7,9,9,17.1,15.8,24.1c6.8,7,14.9,12.4,23.8,16.3c9.3,3.9,19.1,5.9,29.3,5.9c24.2,0,47.5-11.8,60.9-30.7
	c21.7-30.2,38.4-63.7,49.7-99.6c11-34.9,16.5-71.2,16.5-107.8c0-61.1-16.1-113.3-46.6-150.9c-16-19.7-35.6-35-58.3-45.4
	c-23.2-10.6-49.3-16-77.7-16h-1.5c-12.5,0-24.5,1.1-35.5,3.1C784.5,1055.7,773.9,1058.9,764,1063.1z M506.6,1116.2
	c7.4-12.6,22.9-25.1,45.1-25.1c29.6,0,52.5,23.7,52.5,53.3c0,11.1-3,20-8.1,28.8c-22.2,37.7-34.7,73.2-34.7,108.7
	c0,43.6,20,66.6,45.1,66.6h1.5c0.9,0,1.8,0,2.7-0.1c-18.2,29.5-36.4,44.8-48.9,52.5c-14.9,9.2-28.8,12.3-41.4,9.3
	c-18.2-4.3-30.3-20.4-36-29.6c-2.4-3.9-4-6.7-5.1-8.7c-12-26.3-18.4-57.3-18.4-91.5C460.8,1217.5,477,1162.8,506.6,1116.2z
	 M832.7,1072.6c102.8,0,160.5,78.4,160.5,190.1c0,68-20.7,136.8-62.1,194.5c-8.9,12.6-25.1,21.4-42.9,21.4
	c-29.6,0-52.5-23.7-52.5-53.3c0-14.8,5.2-25.1,10.4-32.5c28.8-39.2,46.6-82.2,46.6-132.5c0-46.6-18.5-74.8-48.8-74.8h-1.5
	c-28.8,0-43.6,17.8-65.8,104.3c-26.6,104.3-55.5,171.6-158.3,171.6h-1.5c-34.3,0-64.4-10-88.8-28c14.7,0.4,29.9-4.1,45.4-13.7
	c12.7-7.9,24.9-18.7,36.2-32.1c8.9-10.5,17.3-22.7,24.9-36.2c10.3-18.3,16.5-33.8,18.7-39.8c7.1-17,14.1-41.2,22.7-74.9
	c27.4-105,65.1-164.2,155.3-164.2L832.7,1072.6L832.7,1072.6z"/>
<path display="none" opacity="0.2" fill="#FF0000" enable-background="new    " d="M764,41.8c-9.8,4.2-19.1,9.6-27.6,16
	c-8.2,6.2-16,13.5-23.1,21.7c-13.2,15.2-24.4,34-34.5,57.2c-8.7,20.2-16.7,44.1-24.2,73.2v0v0c-7.4,28.9-14,52.5-20.5,68.8
	c-0.4,0.6-0.6,1.3-0.9,1.9c0,0-0.2,0.6-0.5,1.5c-1.9,4.4-3.7,8.2-5.6,11.3c-2.8,4.8-5.5,7.9-8.2,9.4c-1.5,0.9-4.4,2-10.9,2h-1.5
	c-5.6,0-10.3-2.5-14-7.8c-5.7-7.9-8.9-20.9-8.9-36.6c0-15,2.6-30.3,8-46.6c5.3-16,13-32.6,23.7-50.9l0,0l0,0
	c7.6-13,11.2-25.8,11.2-40c0-10.1-1.9-20-5.7-29.2c-3.7-9-9-17.1-15.8-24.1c-6.8-7-14.9-12.4-23.8-16.3c-9.3-3.9-19.1-5.9-29.3-5.9
	c-14.3,0-28,3.9-39.8,11.2c-10,6.2-18.3,14.7-24.2,24.5c-32.6,51.5-49.1,110.6-49.1,175.8c0,28.4,4.1,55.3,12.3,79.9
	c1.4,4.3,2.9,8.4,4.6,12.4c0.4,1.9,1.1,3.6,1.9,5.2c0.5,1.1,1.2,2.4,2,3.9c7.3,15.9,16.4,30.4,27.3,43.2
	c15.9,18.7,35.1,33.2,56.9,43.2c22.4,10.3,47,15.3,73.2,15.3h1.5c14,0,27.3-1.1,39.4-3.4c12.2-2.3,23.7-5.9,34.1-10.6
	c10.3-4.6,19.9-10.5,28.7-17.5c8.3-6.7,16-14.5,23-23.5c25.4-32.4,40.2-76.6,54.6-133.1c10.4-40.5,19.1-65.2,27.4-77.8
	c2.8-4.1,5.3-7,7.8-8.3c1.3-0.7,3.7-1.8,9.1-1.8h1.5c7.5,0,12.8,3.2,17.2,10c6.1,9.3,9.4,24.5,9.4,42.7c0,21.8-3.6,42.4-11.1,62.8
	c-7,19-17.2,37.6-31.2,56.5l-0.1,0.2l-0.1,0.2c-4.3,6.1-7.4,12.2-9.8,18.7c-3,8.4-4.6,17.3-4.6,26.6c0,10.1,1.9,20,5.7,29.2
	c3.7,9,9,17.1,15.8,24.1c6.8,7,14.9,12.4,23.8,16.3c9.3,3.9,19.1,5.9,29.3,5.9c24.2,0,47.5-11.8,60.9-30.7
	c21.7-30.2,38.4-63.7,49.7-99.6c11-34.9,16.5-71.2,16.5-107.8c0-61.1-16.1-113.3-46.6-150.9c-16-19.7-35.6-35-58.3-45.4
	c-23.2-10.6-49.3-16-77.7-16h-1.5c-12.5,0-24.5,1.1-35.5,3.2C784.5,34.3,773.9,37.5,764,41.8z M506.6,94.9
	c7.4-12.6,22.9-25.1,45.1-25.1c29.6,0,52.5,23.7,52.5,53.3c0,11.1-3,20-8.1,28.8c-22.2,37.7-34.7,73.2-34.7,108.7
	c0,43.6,20,66.5,45.1,66.5h1.5c0.9,0,1.8,0,2.7,0c-18.2,29.5-36.4,44.8-48.9,52.5c-14.9,9.2-28.8,12.3-41.4,9.3
	c-18.2-4.3-30.3-20.4-36-29.6c-2.4-3.9-4-6.7-5.1-8.7c-12-26.3-18.4-57.3-18.4-91.5C460.8,196.2,477,141.5,506.6,94.9z M832.7,51.2
	c102.8,0,160.5,78.4,160.5,190.1c0,68-20.7,136.8-62.1,194.5c-8.9,12.6-25.1,21.4-42.9,21.4c-29.6,0-52.5-23.7-52.5-53.3
	c0-14.8,5.2-25.1,10.4-32.5c28.8-39.2,46.6-82.2,46.6-132.5c0-46.6-18.5-74.8-48.8-74.8h-1.5c-28.8,0-43.6,17.8-65.8,104.3
	C749.9,372.6,721.1,440,618.3,440h-1.5c-34.3,0-64.4-10-88.8-27.9c14.7,0.4,29.9-4.1,45.4-13.7c12.7-7.9,24.9-18.6,36.2-32
	c8.9-10.5,17.3-22.7,24.9-36.2c10.3-18.3,16.5-33.8,18.7-39.8c7.1-17,14.1-41.2,22.7-74.9c27.4-105,65.1-164.2,155.3-164.2
	L832.7,51.2L832.7,51.2z"/>
</svg>
