<?xml version="1.0" encoding="utf-8"?>
<!-- Generator: Adobe Illustrator 18.1.1, SVG Export Plug-In . SVG Version: 6.00 Build 0)  -->
<!DOCTYPE svg PUBLIC "-//W3C//DTD SVG 1.1//EN" "http://www.w3.org/Graphics/SVG/1.1/DTD/svg11.dtd">
<svg version="1.1" id="Layer_1" xmlns="http://www.w3.org/2000/svg" xmlns:xlink="http://www.w3.org/1999/xlink" x="0px" y="0px"
	 viewBox="0 0 1024 440" enable-background="new 0 0 1024 440" xml:space="preserve">
<g>
	<rect x="64" y="149" fill="none" width="893" height="144"/>
	<path fill="#FFFFFF" d="M154.1,174.2V174c0-12.7,9.8-23.5,23.5-23.5c6.8,0,11.4,1.6,15.5,4.6c0.8,0.6,1.6,1.7,1.6,3.2
		c0,2.1-1.8,4-4,4c-1,0-1.8-0.5-2.5-0.9c-2.9-2.1-6.1-3.6-11.1-3.6c-8.4,0-14.8,7.3-14.8,16.1v0.1c0,9.4,6.2,16.3,15.5,16.3
		c4.3,0,8.2-1.4,11-3.4v-8.5h-9c-2,0-3.6-1.5-3.6-3.4s1.6-3.5,3.6-3.5h12.7c2.3,0,4,1.8,4,4v12.2c0,2.3-0.9,3.9-2.8,5.1
		c-3.9,2.6-9.4,4.9-16.2,4.9C163.5,197.6,154.1,187.4,154.1,174.2z"/>
	<path fill="#FFFFFF" d="M206.9,177.5v-22.6c0-2.2,1.8-4,4-4c2.2,0,4,1.8,4,4v22.2c0,8.5,4.4,12.9,11.5,12.9
		c7.1,0,11.4-4.2,11.4-12.6v-22.6c0-2.2,1.8-4,4-4c2.2,0,4,1.8,4,4v22.2c0,13.6-7.7,20.4-19.6,20.4
		C214.4,197.5,206.9,190.7,206.9,177.5z"/>
	<path fill="#FFFFFF" d="M258,154.9c0-2.2,1.8-4,4-4c2.2,0,4,1.8,4,4v38.2c0,2.2-1.8,4-4,4c-2.3,0-4-1.8-4-4V154.9z"/>
	<path fill="#FFFFFF" d="M278.6,155.3c0-2.3,1.8-4,4-4h12.9c14.3,0,24.2,9.8,24.2,22.6v0.1c0,12.8-9.9,22.8-24.2,22.8h-12.9
		c-2.3,0-4-1.8-4-4V155.3z M295.5,189.5c9.6,0,15.8-6.4,15.8-15.3V174c0-8.9-6.2-15.5-15.8-15.5h-9v30.9H295.5z"/>
	<path fill="#FFFFFF" d="M329.8,154.9c0-2.2,1.8-4,4-4c2.2,0,4,1.8,4,4v38.2c0,2.2-1.8,4-4,4c-2.3,0-4-1.8-4-4V154.9z"/>
	<path fill="#FFFFFF" d="M350.4,155c0-2.2,1.8-4,4-4h0.8c1.9,0,3.1,1,4.2,2.3l22.8,29.4v-28c0-2.1,1.8-3.9,3.9-3.9
		c2.2,0,4,1.8,4,3.9v38.2c0,2.2-1.7,4-3.9,4h-0.3c-1.9,0-3.1-1-4.2-2.4l-23.4-30.3v28.9c0,2.1-1.8,3.9-3.9,3.9c-2.2,0-4-1.8-4-3.9
		V155z"/>
	<path fill="#FFFFFF" d="M400.1,174.2V174c0-12.7,9.8-23.5,23.5-23.5c6.8,0,11.4,1.6,15.5,4.6c0.8,0.6,1.6,1.7,1.6,3.2
		c0,2.1-1.8,4-4,4c-1,0-1.8-0.5-2.5-0.9c-2.9-2.1-6.1-3.6-11.1-3.6c-8.4,0-14.8,7.3-14.8,16.1v0.1c0,9.4,6.2,16.3,15.5,16.3
		c4.3,0,8.2-1.4,11-3.4v-8.5h-9c-2,0-3.6-1.5-3.6-3.4s1.6-3.5,3.6-3.5h12.7c2.3,0,4,1.8,4,4v12.2c0,2.3-0.9,3.9-2.8,5.1
		c-3.9,2.6-9.4,4.9-16.2,4.9C409.4,197.6,400.1,187.4,400.1,174.2z"/>
	<path fill="#FFFFFF" d="M488,179.1l-15.7-21.5c-0.5-0.8-0.9-1.7-0.9-2.8c0-2.1,1.8-3.8,4-3.8c1.8,0,2.9,1,3.9,2.4l12.7,18.3
		l12.9-18.3c1-1.4,2.1-2.4,3.8-2.4c2.3,0,3.9,1.8,3.9,3.9c0,1.1-0.5,2.1-1.1,2.9l-15.5,21.3v14.2c0,2.2-1.8,4-4,4c-2.2,0-4-1.8-4-4
		V179.1z"/>
	<path fill="#FFFFFF" d="M515.9,174.2V174c0-12.8,9.9-23.5,23.9-23.5s23.7,10.6,23.7,23.4v0.1c0,12.8-9.9,23.5-23.9,23.5
		C525.7,197.6,515.9,187,515.9,174.2z M555.1,174.2V174c0-8.8-6.4-16.2-15.5-16.2c-9,0-15.3,7.2-15.3,16.1v0.1
		c0,8.8,6.4,16.1,15.5,16.1C548.8,190.1,555.1,183,555.1,174.2z"/>
	<path fill="#FFFFFF" d="M572.9,177.5v-22.6c0-2.2,1.8-4,4-4c2.2,0,4,1.8,4,4v22.2c0,8.5,4.4,12.9,11.5,12.9
		c7.1,0,11.4-4.2,11.4-12.6v-22.6c0-2.2,1.8-4,4-4c2.2,0,4,1.8,4,4v22.2c0,13.6-7.7,20.4-19.6,20.4
		C580.5,197.5,572.9,190.7,572.9,177.5z"/>
	<path fill="#FFFFFF" d="M656.1,158.7h-11c-2.1,0-3.7-1.7-3.7-3.7c0-2,1.6-3.7,3.7-3.7h30.2c2,0,3.6,1.7,3.6,3.7
		c0,2-1.6,3.7-3.6,3.7h-11.1v34.5c0,2.2-1.8,4-4,4s-4-1.8-4-4V158.7z"/>
	<path fill="#FFFFFF" d="M682.4,174.2V174c0-12.8,9.9-23.5,23.9-23.5s23.7,10.6,23.7,23.4v0.1c0,12.8-9.9,23.5-23.9,23.5
		C692.1,197.6,682.4,187,682.4,174.2z M721.6,174.2V174c0-8.8-6.4-16.2-15.5-16.2c-9,0-15.3,7.2-15.3,16.1v0.1
		c0,8.8,6.4,16.1,15.5,16.1C715.3,190.1,721.6,183,721.6,174.2z"/>
	<path fill="#FFFFFF" d="M772.9,158.7h-11c-2.1,0-3.7-1.7-3.7-3.7c0-2,1.6-3.7,3.7-3.7h30.2c2,0,3.6,1.7,3.6,3.7
		c0,2-1.6,3.7-3.6,3.7H781v34.5c0,2.2-1.8,4-4,4s-4-1.8-4-4V158.7z"/>
	<path fill="#FFFFFF" d="M803.6,154.9c0-2.2,1.8-4,4-4c2.2,0,4,1.8,4,4v15.3h21.7v-15.3c0-2.2,1.8-4,4-4c2.3,0,4,1.8,4,4v38.2
		c0,2.2-1.8,4-4,4c-2.2,0-4-1.8-4-4v-15.5h-21.7v15.5c0,2.2-1.8,4-4,4c-2.3,0-4-1.8-4-4V154.9z"/>
	<path fill="#FFFFFF" d="M853.8,192.7v-37.4c0-2.3,1.8-4,4-4h26.5c2,0,3.6,1.6,3.6,3.6c0,2-1.6,3.6-3.6,3.6h-22.5v11.8h19.6
		c2,0,3.6,1.6,3.6,3.6c0,2-1.6,3.5-3.6,3.5h-19.6v12.2h22.8c2,0,3.6,1.6,3.6,3.6c0,2-1.6,3.6-3.6,3.6h-26.8
		C855.6,196.8,853.8,195,853.8,192.7z"/>
	<path fill="#FFFFFF" d="M133.2,251c0-2.2,1.8-4,4-4h0.8c1.8,0,2.9,0.9,3.7,2.1l13.8,21.6l13.8-21.6c0.8-1.4,2-2.1,3.6-2.1h0.8
		c2.3,0,4,1.8,4,4v38.1c0,2.2-1.8,4-4,4c-2.1,0-4-1.8-4-4v-27.3l-11.1,16.7c-0.8,1.3-1.9,2.1-3.4,2.1c-1.4,0-2.5-0.8-3.3-2.1
		L141,262v27.2c0,2.2-1.8,3.9-4,3.9s-3.9-1.7-3.9-3.9V251z"/>
	<path fill="#FFFFFF" d="M189.9,273.5v-22.6c0-2.2,1.8-4,4-4c2.2,0,4,1.8,4,4v22.2c0,8.5,4.4,12.9,11.5,12.9
		c7.1,0,11.4-4.2,11.4-12.6v-22.6c0-2.2,1.8-4,4-4c2.2,0,4,1.8,4,4v22.2c0,13.6-7.7,20.4-19.6,20.4
		C197.4,293.5,189.9,286.7,189.9,273.5z"/>
	<path fill="#FFFFFF" d="M240.8,250.9c0-2.2,1.8-4,4-4c2.2,0,4,1.8,4,4v34.6h20.6c2,0,3.6,1.6,3.6,3.6c0,2-1.6,3.6-3.6,3.6h-24.6
		c-2.3,0-4-1.8-4-4V250.9z"/>
	<path fill="#FFFFFF" d="M285.9,254.7h-11.1c-2.1,0-3.7-1.7-3.7-3.7c0-2,1.6-3.7,3.7-3.7h30.2c2,0,3.6,1.7,3.6,3.7
		c0,2-1.6,3.7-3.6,3.7H294v34.5c0,2.2-1.8,4-4,4c-2.2,0-4-1.8-4-4V254.7z"/>
	<path fill="#FFFFFF" d="M316.8,250.9c0-2.2,1.8-4,4-4c2.2,0,4,1.8,4,4v38.2c0,2.2-1.8,4-4,4c-2.3,0-4-1.8-4-4V250.9z"/>
	<path fill="#FFFFFF" d="M336.2,287.7c-0.9-0.6-1.6-1.8-1.6-3.1c0-2.1,1.7-3.7,3.8-3.7c1.1,0,1.8,0.3,2.3,0.7
		c3.8,3,7.8,4.7,12.7,4.7c4.9,0,8.1-2.3,8.1-5.7v-0.1c0-3.2-1.8-5-10.3-7c-9.7-2.3-15.1-5.2-15.1-13.6v-0.1
		c0-7.8,6.5-13.2,15.5-13.2c5.7,0,10.3,1.5,14.4,4.2c0.9,0.5,1.8,1.6,1.8,3.2c0,2.1-1.7,3.7-3.8,3.7c-0.8,0-1.4-0.2-2.1-0.6
		c-3.5-2.3-6.9-3.4-10.5-3.4c-4.7,0-7.4,2.4-7.4,5.4v0.1c0,3.5,2.1,5.1,10.9,7.2c9.6,2.3,14.6,5.8,14.6,13.3v0.1
		c0,8.5-6.7,13.6-16.3,13.6C347.1,293.4,341.2,291.5,336.2,287.7z"/>
	<path fill="#FFFFFF" d="M376.7,270.2V270c0-12.9,9.7-23.5,23.5-23.5c7,0,11.6,2.1,15.6,5.1c0.8,0.7,1.6,1.8,1.6,3.2
		c0,2.2-1.8,3.9-4,3.9c-1.1,0-1.9-0.4-2.4-0.8c-3.1-2.5-6.5-4.1-10.9-4.1c-8.6,0-15,7.2-15,16.1v0.1c0,8.9,6.3,16.1,15,16.1
		c4.8,0,8.1-1.6,11.4-4.4c0.6-0.5,1.4-0.9,2.4-0.9c2,0,3.8,1.7,3.8,3.7c0,1.2-0.6,2.2-1.3,2.9c-4.3,3.8-9.2,6.1-16.5,6.1
		C386.5,293.6,376.7,283.2,376.7,270.2z"/>
	<path fill="#FFFFFF" d="M427,251.3c0-2.3,1.8-4,4-4h16.3c5.7,0,10.2,1.7,13.1,4.6c2.4,2.5,3.8,5.8,3.8,9.8v0.1
		c0,7.3-4.2,11.7-10.3,13.6l8.7,11c0.8,1,1.3,1.8,1.3,3.1c0,2.2-1.9,3.7-3.8,3.7c-1.8,0-3-0.8-3.9-2.1l-11.1-14.1H435v12.2
		c0,2.2-1.8,4-4,4c-2.3,0-4-1.8-4-4V251.3z M446.7,269.8c5.7,0,9.4-3,9.4-7.6v-0.1c0-4.9-3.5-7.5-9.4-7.5H435v15.3H446.7z"/>
	<path fill="#FFFFFF" d="M474.7,288.7v-37.4c0-2.3,1.8-4,4-4h26.5c2,0,3.6,1.6,3.6,3.6c0,2-1.6,3.6-3.6,3.6h-22.5v11.8h19.6
		c2,0,3.6,1.6,3.6,3.6c0,2-1.6,3.5-3.6,3.5h-19.6v12.2h22.8c2,0,3.6,1.6,3.6,3.6c0,2-1.6,3.6-3.6,3.6h-26.8
		C476.5,292.8,474.7,291,474.7,288.7z"/>
	<path fill="#FFFFFF" d="M518.4,288.7v-37.4c0-2.3,1.8-4,4-4h26.5c2,0,3.6,1.6,3.6,3.6c0,2-1.6,3.6-3.6,3.6h-22.5v11.8H546
		c1.9,0,3.6,1.6,3.6,3.6c0,2-1.6,3.5-3.6,3.5h-19.6v12.2h22.8c2,0,3.6,1.6,3.6,3.6c0,2-1.6,3.6-3.6,3.6h-26.8
		C520.2,292.8,518.4,291,518.4,288.7z"/>
	<path fill="#FFFFFF" d="M562.1,251c0-2.2,1.8-4,4-4h0.8c2,0,3.1,1,4.2,2.3l22.8,29.4v-28c0-2.1,1.8-3.9,3.9-3.9c2.2,0,4,1.8,4,3.9
		v38.2c0,2.2-1.7,4-3.9,4h-0.3c-1.9,0-3.1-1-4.2-2.4L570,260.3v28.9c0,2.1-1.8,3.9-3.9,3.9c-2.2,0-4-1.8-4-3.9V251z"/>
	<path fill="#FFFFFF" d="M632.7,252.4c-0.2-0.5-0.3-1-0.3-1.6c0-2.2,1.9-3.9,4.1-3.9c2,0,3.4,1.2,4,2.9l10.5,31.3l10.3-31.1
		c0.6-1.9,2-3.2,4-3.2h0.6c2,0,3.4,1.3,4,3.2l10.3,31.1l10.5-31.3c0.6-1.6,2-2.9,3.9-2.9c2.1,0,4,1.7,4,3.8c0,0.5-0.2,1.2-0.4,1.6
		l-13.5,37.7c-0.7,2-2.2,3.3-4.2,3.3h-0.8c-2,0-3.4-1.2-4.1-3.3l-10.1-29.7l-10.1,29.7c-0.7,2.1-2.2,3.3-4.2,3.3h-0.8
		c-2,0-3.4-1.2-4.2-3.3L632.7,252.4z"/>
	<path fill="#FFFFFF" d="M703.3,270.2V270c0-12.8,9.9-23.5,23.9-23.5s23.7,10.6,23.7,23.4v0.1c0,12.8-9.9,23.5-23.9,23.5
		C713.1,293.6,703.3,283,703.3,270.2z M742.5,270.2V270c0-8.8-6.4-16.2-15.5-16.2c-9,0-15.3,7.2-15.3,16.1v0.1
		c0,8.8,6.4,16.1,15.5,16.1C736.2,286.1,742.5,279,742.5,270.2z"/>
	<path fill="#FFFFFF" d="M760.9,251.3c0-2.3,1.8-4,4-4h16.3c5.7,0,10.2,1.7,13.1,4.6c2.4,2.5,3.8,5.8,3.8,9.8v0.1
		c0,7.3-4.2,11.7-10.3,13.6l8.7,11c0.8,1,1.3,1.8,1.3,3.1c0,2.2-1.9,3.7-3.8,3.7c-1.8,0-3-0.8-3.9-2.1L779,276.9h-10.1v12.2
		c0,2.2-1.8,4-4,4c-2.3,0-4-1.8-4-4V251.3z M780.6,269.8c5.7,0,9.4-3,9.4-7.6v-0.1c0-4.9-3.5-7.5-9.4-7.5h-11.6v15.3H780.6z"/>
	<path fill="#FFFFFF" d="M808.6,250.9c0-2.2,1.8-4,4-4c2.2,0,4,1.8,4,4v34.6h20.6c2,0,3.6,1.6,3.6,3.6c0,2-1.6,3.6-3.6,3.6h-24.6
		c-2.3,0-4-1.8-4-4V250.9z"/>
	<path fill="#FFFFFF" d="M848.7,251.3c0-2.3,1.8-4,4-4h12.9c14.3,0,24.2,9.8,24.2,22.6v0.1c0,12.8-9.9,22.8-24.2,22.8h-12.9
		c-2.3,0-4-1.8-4-4V251.3z M865.7,285.5c9.6,0,15.8-6.4,15.8-15.3V270c0-8.9-6.2-15.5-15.8-15.5h-9v30.9H865.7z"/>
</g>
</svg>
