<?xml version="1.0" encoding="utf-8"?>
<!-- Generator: Adobe Illustrator 18.1.1, SVG Export Plug-In . SVG Version: 6.00 Build 0)  -->
<!DOCTYPE svg PUBLIC "-//W3C//DTD SVG 1.1//EN" "http://www.w3.org/Graphics/SVG/1.1/DTD/svg11.dtd">
<svg version="1.1" id="Layer_1" xmlns="http://www.w3.org/2000/svg" xmlns:xlink="http://www.w3.org/1999/xlink" x="0px" y="0px"
	 viewBox="0 0 1024 440" enable-background="new 0 0 1024 440" xml:space="preserve">
<g>
	<rect x="64" y="149" fill="none" width="893" height="144"/>
	<path fill="#FFFFFF" d="M122.9,174.2V174c0-12.9,9.7-23.5,23.5-23.5c7,0,11.6,2.1,15.6,5.1c0.8,0.6,1.6,1.8,1.6,3.2
		c0,2.2-1.8,3.9-4,3.9c-1.1,0-1.9-0.4-2.4-0.8c-3.1-2.5-6.5-4.1-10.9-4.1c-8.6,0-15,7.2-15,16.1v0.1c0,8.9,6.3,16.1,15,16.1
		c4.8,0,8.1-1.6,11.4-4.4c0.6-0.5,1.4-0.9,2.4-0.9c2,0,3.8,1.7,3.8,3.7c0,1.2-0.6,2.2-1.3,2.9c-4.3,3.8-9.2,6.1-16.5,6.1
		C132.8,197.6,122.9,187.2,122.9,174.2z"/>
	<path fill="#FFFFFF" d="M173.2,154.9c0-2.2,1.8-4,4-4c2.2,0,4,1.8,4,4v34.6h20.6c2,0,3.6,1.6,3.6,3.6s-1.6,3.6-3.6,3.6h-24.6
		c-2.3,0-4-1.8-4-4V154.9z"/>
	<path fill="#FFFFFF" d="M213.5,154.9c0-2.2,1.8-4,4-4c2.2,0,4,1.8,4,4v38.2c0,2.2-1.8,4-4,4c-2.3,0-4-1.8-4-4V154.9z"/>
	<path fill="#FFFFFF" d="M231.7,174.2V174c0-12.9,9.7-23.5,23.5-23.5c7,0,11.6,2.1,15.6,5.1c0.8,0.6,1.6,1.8,1.6,3.2
		c0,2.2-1.8,3.9-4,3.9c-1.1,0-1.9-0.4-2.4-0.8c-3.1-2.5-6.5-4.1-10.9-4.1c-8.6,0-15,7.2-15,16.1v0.1c0,8.9,6.3,16.1,15,16.1
		c4.8,0,8.1-1.6,11.4-4.4c0.6-0.5,1.4-0.9,2.4-0.9c2,0,3.8,1.7,3.8,3.7c0,1.2-0.6,2.2-1.3,2.9c-4.3,3.8-9.2,6.1-16.5,6.1
		C241.5,197.6,231.7,187.2,231.7,174.2z"/>
	<path fill="#FFFFFF" d="M282,154.9c0-2.2,1.8-4,4-4c2.2,0,4,1.8,4,4v19.2l21.6-21.7c0.9-1,1.9-1.5,3.3-1.5c2.2,0,3.7,1.8,3.7,3.7
		c0,1.2-0.5,2.1-1.4,3L303,171.3l15.3,19c0.6,0.8,1.1,1.6,1.1,2.9c0,2.2-1.8,3.9-4,3.9c-1.6,0-2.5-0.8-3.4-1.9l-14.6-18.7l-7.4,7.2
		v9.4c0,2.2-1.8,4-4,4c-2.3,0-4-1.8-4-4V154.9z"/>
	<path fill="#FFFFFF" d="M350.5,154.9c0-2.2,1.8-4,4-4c2.2,0,4,1.8,4,4v15.3h21.7v-15.3c0-2.2,1.8-4,4-4c2.3,0,4,1.8,4,4v38.2
		c0,2.2-1.8,4-4,4c-2.2,0-4-1.8-4-4v-15.5h-21.7v15.5c0,2.2-1.8,4-4,4c-2.3,0-4-1.8-4-4V154.9z"/>
	<path fill="#FFFFFF" d="M400.7,192.7v-37.4c0-2.3,1.8-4,4-4h26.5c2,0,3.6,1.6,3.6,3.6c0,2-1.6,3.6-3.6,3.6h-22.5v11.8h19.6
		c2,0,3.6,1.6,3.6,3.6c0,2-1.6,3.5-3.6,3.5h-19.6v12.2h22.8c2,0,3.6,1.6,3.6,3.6c0,2-1.6,3.6-3.6,3.6h-26.8
		C402.4,196.8,400.7,195,400.7,192.7z"/>
	<path fill="#FFFFFF" d="M444.3,155.3c0-2.3,1.8-4,4-4h16.3c5.7,0,10.2,1.7,13.1,4.5c2.4,2.5,3.8,5.9,3.8,9.8v0.1
		c0,7.3-4.2,11.7-10.3,13.6l8.7,11c0.8,1,1.3,1.8,1.3,3.1c0,2.2-1.9,3.7-3.8,3.7c-1.8,0-3-0.8-3.9-2.1l-11.1-14.1h-10.1v12.2
		c0,2.2-1.8,4-4,4c-2.3,0-4-1.8-4-4V155.3z M464,173.8c5.7,0,9.4-3,9.4-7.6v-0.1c0-4.9-3.5-7.5-9.4-7.5h-11.6v15.3H464z"/>
	<path fill="#FFFFFF" d="M492,192.7v-37.4c0-2.3,1.8-4,4-4h26.5c2,0,3.6,1.6,3.6,3.6c0,2-1.6,3.6-3.6,3.6H500v11.8h19.6
		c2,0,3.6,1.6,3.6,3.6c0,2-1.6,3.5-3.6,3.5H500v12.2h22.8c2,0,3.6,1.6,3.6,3.6c0,2-1.6,3.6-3.6,3.6h-26.8
		C493.8,196.8,492,195,492,192.7z"/>
	<path fill="#FFFFFF" d="M568.9,158.7h-11c-2.1,0-3.7-1.7-3.7-3.7c0-2,1.6-3.7,3.7-3.7H588c2,0,3.6,1.7,3.6,3.7c0,2-1.6,3.7-3.6,3.7
		h-11.1v34.5c0,2.2-1.8,4-4,4s-4-1.8-4-4V158.7z"/>
	<path fill="#FFFFFF" d="M595.1,174.2V174c0-12.8,9.9-23.5,23.9-23.5s23.7,10.6,23.7,23.4v0.1c0,12.8-9.9,23.5-23.9,23.5
		C604.9,197.6,595.1,187,595.1,174.2z M634.3,174.2V174c0-8.8-6.4-16.2-15.5-16.2c-9,0-15.3,7.2-15.3,16.1v0.1
		c0,8.8,6.4,16.1,15.5,16.1C628,190.1,634.3,183,634.3,174.2z"/>
	<path fill="#FFFFFF" d="M674.5,154.9c0-2.2,1.8-4,4-4c2.2,0,4,1.8,4,4v34.6h20.6c2,0,3.6,1.6,3.6,3.6s-1.6,3.6-3.6,3.6h-24.6
		c-2.3,0-4-1.8-4-4V154.9z"/>
	<path fill="#FFFFFF" d="M714.6,192.7v-37.4c0-2.3,1.8-4,4-4H745c2,0,3.6,1.6,3.6,3.6c0,2-1.6,3.6-3.6,3.6h-22.5v11.8h19.6
		c2,0,3.6,1.6,3.6,3.6c0,2-1.6,3.5-3.6,3.5h-19.6v12.2h22.8c2,0,3.6,1.6,3.6,3.6c0,2-1.6,3.6-3.6,3.6h-26.8
		C716.3,196.8,714.6,195,714.6,192.7z"/>
	<path fill="#FFFFFF" d="M756.4,191.6l16.9-37.7c0.9-2,2.5-3.2,4.8-3.2h0.4c2.3,0,3.8,1.2,4.7,3.2l16.9,37.7
		c0.3,0.6,0.5,1.2,0.5,1.7c0,2.1-1.6,3.8-3.8,3.8c-1.9,0-3.2-1.1-3.9-2.8l-3.7-8.5h-22.1l-3.8,8.8c-0.7,1.6-2,2.5-3.7,2.5
		c-2.1,0-3.7-1.6-3.7-3.7C755.9,192.8,756.1,192.2,756.4,191.6z M786.2,178.7l-8-18.4l-8,18.4H786.2z"/>
	<path fill="#FFFFFF" d="M808.8,155.3c0-2.3,1.8-4,4-4h16.2c5.7,0,10.2,1.7,13.1,4.5c2.4,2.5,3.8,5.9,3.8,9.8v0.1
		c0,7.3-4.2,11.7-10.3,13.6l8.7,11c0.8,1,1.3,1.8,1.3,3.1c0,2.2-1.9,3.7-3.8,3.7c-1.8,0-3-0.8-3.9-2.1l-11.1-14.1h-10.1v12.2
		c0,2.2-1.8,4-4,4c-2.3,0-4-1.8-4-4V155.3z M828.5,173.8c5.7,0,9.4-3,9.4-7.6v-0.1c0-4.9-3.5-7.5-9.4-7.5h-11.6v15.3H828.5z"/>
	<path fill="#FFFFFF" d="M856.5,155c0-2.2,1.8-4,4-4h0.8c2,0,3.1,1,4.2,2.3l22.8,29.4v-28c0-2.1,1.8-3.9,3.9-3.9c2.2,0,4,1.8,4,3.9
		v38.2c0,2.2-1.7,4-3.9,4h-0.3c-1.9,0-3.1-1-4.2-2.4l-23.4-30.3v28.9c0,2.1-1.8,3.9-3.9,3.9c-2.2,0-4-1.8-4-3.9V155z"/>
	<path fill="#FFFFFF" d="M81.2,250.9c0-2.2,1.8-4,4-4c2.2,0,4,1.8,4,4v15.3h21.7v-15.3c0-2.2,1.8-4,4-4c2.3,0,4,1.8,4,4v38.2
		c0,2.2-1.8,4-4,4c-2.2,0-4-1.8-4-4v-15.5H89.2v15.5c0,2.2-1.8,4-4,4c-2.3,0-4-1.8-4-4V250.9z"/>
	<path fill="#FFFFFF" d="M129,270.2V270c0-12.8,9.9-23.5,23.9-23.5s23.7,10.6,23.7,23.4v0.1c0,12.8-9.9,23.5-23.9,23.5
		S129,283,129,270.2z M168.1,270.2V270c0-8.8-6.4-16.2-15.5-16.2s-15.3,7.2-15.3,16.1v0.1c0,8.8,6.4,16.1,15.5,16.1
		C161.8,286.1,168.1,279,168.1,270.2z"/>
	<path fill="#FFFFFF" d="M181.7,252.4c-0.2-0.5-0.3-1-0.3-1.6c0-2.2,1.9-3.9,4.1-3.9c2,0,3.4,1.2,4,2.9l10.5,31.3l10.3-31.1
		c0.6-1.9,2-3.2,4-3.2h0.6c2,0,3.4,1.3,4,3.2l10.3,31.1l10.5-31.3c0.6-1.6,2-2.9,3.9-2.9c2.1,0,4,1.7,4,3.8c0,0.5-0.2,1.2-0.4,1.6
		l-13.5,37.7c-0.7,2-2.2,3.3-4.2,3.3h-0.8c-2,0-3.4-1.2-4.1-3.3l-10.1-29.7l-10.1,29.7c-0.7,2.1-2.2,3.3-4.2,3.3h-0.8
		c-2,0-3.4-1.2-4.2-3.3L181.7,252.4z"/>
	<path fill="#FFFFFF" d="M289.2,254.7h-11.1c-2.1,0-3.7-1.7-3.7-3.7c0-2,1.6-3.7,3.7-3.7h30.2c2,0,3.6,1.7,3.6,3.7
		c0,2-1.6,3.7-3.6,3.7h-11.1v34.5c0,2.2-1.8,4-4,4c-2.2,0-4-1.8-4-4V254.7z"/>
	<path fill="#FFFFFF" d="M315.4,270.2V270c0-12.8,9.9-23.5,23.9-23.5s23.7,10.6,23.7,23.4v0.1c0,12.8-9.9,23.5-23.9,23.5
		S315.4,283,315.4,270.2z M354.6,270.2V270c0-8.8-6.4-16.2-15.5-16.2s-15.3,7.2-15.3,16.1v0.1c0,8.8,6.4,16.1,15.5,16.1
		C348.3,286.1,354.6,279,354.6,270.2z"/>
	<path fill="#FFFFFF" d="M406,254.7h-11.1c-2.1,0-3.7-1.7-3.7-3.7c0-2,1.6-3.7,3.7-3.7h30.2c2,0,3.6,1.7,3.6,3.7
		c0,2-1.6,3.7-3.6,3.7H414v34.5c0,2.2-1.8,4-4,4c-2.2,0-4-1.8-4-4V254.7z"/>
	<path fill="#FFFFFF" d="M436.7,288.7v-37.4c0-2.3,1.8-4,4-4h26.5c2,0,3.6,1.6,3.6,3.6c0,2-1.6,3.6-3.6,3.6h-22.5v11.8h19.6
		c2,0,3.6,1.6,3.6,3.6c0,2-1.6,3.5-3.6,3.5h-19.6v12.2h22.8c2,0,3.6,1.6,3.6,3.6c0,2-1.6,3.6-3.6,3.6h-26.8
		C438.4,292.8,436.7,291,436.7,288.7z"/>
	<path fill="#FFFFFF" d="M479.3,287.7c-0.9-0.6-1.6-1.8-1.6-3.1c0-2.1,1.7-3.7,3.8-3.7c1.1,0,1.8,0.3,2.3,0.7
		c3.8,3,7.8,4.7,12.7,4.7c4.9,0,8.1-2.3,8.1-5.7v-0.1c0-3.2-1.8-5-10.3-7c-9.7-2.3-15.1-5.2-15.1-13.6v-0.1
		c0-7.8,6.5-13.2,15.5-13.2c5.7,0,10.3,1.5,14.4,4.2c0.9,0.5,1.8,1.6,1.8,3.2c0,2.1-1.7,3.7-3.8,3.7c-0.8,0-1.4-0.2-2.1-0.6
		c-3.5-2.3-6.9-3.4-10.5-3.4c-4.7,0-7.4,2.4-7.4,5.4v0.1c0,3.5,2.1,5.1,10.9,7.2c9.6,2.3,14.6,5.8,14.6,13.3v0.1
		c0,8.5-6.7,13.6-16.3,13.6C490.3,293.4,484.4,291.5,479.3,287.7z"/>
	<path fill="#FFFFFF" d="M533.2,254.7h-11c-2.1,0-3.7-1.7-3.7-3.7c0-2,1.6-3.7,3.7-3.7h30.2c2,0,3.6,1.7,3.6,3.7
		c0,2-1.6,3.7-3.6,3.7h-11.1v34.5c0,2.2-1.8,4-4,4s-4-1.8-4-4V254.7z"/>
	<path fill="#FFFFFF" d="M599.1,275.1l-15.7-21.5c-0.5-0.8-0.9-1.7-0.9-2.8c0-2.1,1.8-3.8,4-3.8c1.8,0,2.9,1,3.9,2.4l12.7,18.3
		l12.9-18.3c1-1.4,2.1-2.4,3.8-2.4c2.3,0,3.9,1.8,3.9,3.9c0,1.1-0.5,2.1-1.1,2.9l-15.5,21.3v14.2c0,2.2-1.8,4-4,4c-2.2,0-4-1.8-4-4
		V275.1z"/>
	<path fill="#FFFFFF" d="M627,270.2V270c0-12.8,9.9-23.5,23.9-23.5s23.7,10.6,23.7,23.4v0.1c0,12.8-9.9,23.5-23.9,23.5
		C636.8,293.6,627,283,627,270.2z M666.2,270.2V270c0-8.8-6.4-16.2-15.5-16.2c-9,0-15.3,7.2-15.3,16.1v0.1c0,8.8,6.4,16.1,15.5,16.1
		C659.9,286.1,666.2,279,666.2,270.2z"/>
	<path fill="#FFFFFF" d="M684,273.5v-22.6c0-2.2,1.8-4,4-4c2.2,0,4,1.8,4,4v22.2c0,8.5,4.4,12.9,11.5,12.9c7.1,0,11.4-4.2,11.4-12.6
		v-22.6c0-2.2,1.8-4,4-4c2.2,0,4,1.8,4,4v22.2c0,13.6-7.7,20.4-19.6,20.4C691.6,293.5,684,286.7,684,273.5z"/>
	<path fill="#FFFFFF" d="M734.9,251.3c0-2.3,1.8-4,4-4h16.3c5.7,0,10.2,1.7,13.1,4.6c2.4,2.5,3.8,5.8,3.8,9.8v0.1
		c0,7.3-4.2,11.7-10.3,13.6l8.7,11c0.8,1,1.3,1.8,1.3,3.1c0,2.2-1.9,3.7-3.8,3.7c-1.8,0-3-0.8-3.9-2.1L753,276.9h-10.1v12.2
		c0,2.2-1.8,4-4,4c-2.3,0-4-1.8-4-4V251.3z M754.6,269.8c5.7,0,9.4-3,9.4-7.6v-0.1c0-4.9-3.5-7.5-9.4-7.5h-11.6v15.3H754.6z"/>
	<path fill="#FFFFFF" d="M802.9,287.7c-0.9-0.6-1.6-1.8-1.6-3.1c0-2.1,1.7-3.7,3.8-3.7c1.1,0,1.8,0.3,2.3,0.7
		c3.8,3,7.8,4.7,12.7,4.7s8.1-2.3,8.1-5.7v-0.1c0-3.2-1.8-5-10.3-7c-9.7-2.3-15.1-5.2-15.1-13.6v-0.1c0-7.8,6.5-13.2,15.5-13.2
		c5.7,0,10.3,1.5,14.4,4.2c0.9,0.5,1.8,1.6,1.8,3.2c0,2.1-1.7,3.7-3.8,3.7c-0.8,0-1.4-0.2-2.1-0.6c-3.5-2.3-6.9-3.4-10.5-3.4
		c-4.7,0-7.4,2.4-7.4,5.4v0.1c0,3.5,2.1,5.1,10.9,7.2c9.6,2.3,14.6,5.8,14.6,13.3v0.1c0,8.5-6.7,13.6-16.3,13.6
		C813.8,293.4,807.9,291.5,802.9,287.7z"/>
	<path fill="#FFFFFF" d="M846.5,250.9c0-2.2,1.8-4,4-4c2.2,0,4,1.8,4,4v38.2c0,2.2-1.8,4-4,4c-2.3,0-4-1.8-4-4V250.9z"/>
	<path fill="#FFFFFF" d="M877.2,254.7h-11c-2.1,0-3.7-1.7-3.7-3.7c0-2,1.6-3.7,3.7-3.7h30.2c2,0,3.6,1.7,3.6,3.7
		c0,2-1.6,3.7-3.6,3.7h-11.1v34.5c0,2.2-1.8,4-4,4s-4-1.8-4-4V254.7z"/>
	<path fill="#FFFFFF" d="M907.9,288.7v-37.4c0-2.3,1.8-4,4-4h26.5c2,0,3.6,1.6,3.6,3.6c0,2-1.6,3.6-3.6,3.6h-22.5v11.8h19.6
		c2,0,3.6,1.6,3.6,3.6c0,2-1.6,3.5-3.6,3.5h-19.6v12.2h22.8c2,0,3.6,1.6,3.6,3.6c0,2-1.6,3.6-3.6,3.6H912
		C909.7,292.8,907.9,291,907.9,288.7z"/>
</g>
</svg>
